<?xml version="1.0" encoding="UTF-8" standalone="no"?><!DOCTYPE svg PUBLIC "-//W3C//DTD SVG 1.1//EN" "http://www.w3.org/Graphics/SVG/1.1/DTD/svg11.dtd"><svg width="100%" height="100%" viewBox="0 0 600 600" version="1.1" xmlns="http://www.w3.org/2000/svg" xmlns:xlink="http://www.w3.org/1999/xlink" xml:space="preserve" xmlns:serif="http://www.serif.com/" style="fill-rule:evenodd;clip-rule:evenodd;stroke-linecap:round;stroke-linejoin:round;stroke-miterlimit:1.5;"><path d="M300,98.358l0,321.642" style="fill:none;stroke:#000;stroke-width:1px;stroke-dasharray:4,4,0,0;"/><path d="M500,300l-440,0" style="fill:none;stroke:#000;stroke-width:1px;stroke-dasharray:4,4,0,0;"/><path d="M500,100l-320,320" style="fill:none;stroke:#000;stroke-width:1px;stroke-dasharray:4,4,0,0;"/><path d="M420,420l-321.642,-321.642" style="fill:none;stroke:#000;stroke-width:1px;stroke-dasharray:4,4,0,0;"/><g transform="matrix(1,0,0,1,435.084,0.727795)"><text x="18.941px" y="321.618px" style="font-family:'NotoSans-Regular', 'Noto Sans', sans-serif;font-size:12px;">G</text><text x="27.677px" y="325.614px" style="font-family:'NotoSans-Regular', 'Noto Sans', sans-serif;font-size:6.996px;">1</text></g><g transform="matrix(1,0,0,1,76.9078,-10.0142)"><text x="18.941px" y="321.618px" style="font-family:'NotoSans-Regular', 'Noto Sans', sans-serif;font-size:12px;">A</text><text x="26.609px" y="325.614px" style="font-family:'NotoSans-Regular', 'Noto Sans', sans-serif;font-size:6.996px;">1</text></g><text x="274.558px" y="297.071px" style="font-family:'NotoSans-Regular', 'Noto Sans', sans-serif;font-size:12px;">M</text><g transform="matrix(0.985068,0,0,1,181.342,-129.314)"><text x="18.941px" y="321.618px" style="font-family:'NotoSans-Regular', 'Noto Sans', sans-serif;font-size:12px;">A</text><text x="26.609px" y="325.614px" style="font-family:'NotoSans-Regular', 'Noto Sans', sans-serif;font-size:6.996px;">2</text></g><g transform="matrix(1,0,0,1,283.788,-125.618)"><text x="18.941px" y="321.618px" style="font-family:'NotoSans-Regular', 'Noto Sans', sans-serif;font-size:12px;">A</text><text x="26.609px" y="325.614px" style="font-family:'NotoSans-Regular', 'Noto Sans', sans-serif;font-size:6.996px;">3</text></g><g transform="matrix(1,0,0,1,78.6855,-195.614)"><text x="18.941px" y="321.618px" style="font-family:'NotoSans-Regular', 'Noto Sans', sans-serif;font-size:12px;">G</text><text x="27.677px" y="325.614px" style="font-family:'NotoSans-Regular', 'Noto Sans', sans-serif;font-size:6.996px;">2</text></g><g transform="matrix(1,0,0,1,260.327,-195.684)"><text x="18.941px" y="321.618px" style="font-family:'NotoSans-Regular', 'Noto Sans', sans-serif;font-size:12px;">G</text><text x="27.677px" y="325.614px" style="font-family:'NotoSans-Regular', 'Noto Sans', sans-serif;font-size:6.996px;">3</text></g><g transform="matrix(1,0,0,1,424.395,-195.614)"><text x="18.941px" y="321.618px" style="font-family:'NotoSans-Regular', 'Noto Sans', sans-serif;font-size:12px;">G</text><text x="27.677px" y="325.614px" style="font-family:'NotoSans-Regular', 'Noto Sans', sans-serif;font-size:6.996px;">4</text></g><path d="M100,300l100,-100l100,0l50,50l0,50l-24.715,24.715l-25.285,0l-12,-12l0,-12.715l6,-6" style="fill:none;stroke:#000;stroke-width:1px;"/><g><path d="M208.129,207.871c-4.486,4.486 -11.654,4.604 -15.995,0.263" style="fill:none;stroke:#000;stroke-width:1px;"/><path d="M200.413,206.219c-0.14,0.14 -0.364,0.143 -0.499,0.008c-0.136,-0.136 -0.132,-0.36 0.008,-0.5c0.14,-0.14 0.364,-0.143 0.499,-0.008c0.136,0.136 0.132,0.359 -0.008,0.5Z" style="fill:none;stroke:#000;stroke-width:1px;"/></g><path d="M127.252,273c6.083,6.475 11.459,17.193 11.459,26.624" style="fill:none;stroke:#000;stroke-width:1px;"/><g><path d="M300,211.314c-6.345,0 -11.497,-4.984 -11.497,-11.124" style="fill:none;stroke:#000;stroke-width:1px;"/><ellipse cx="295.712" cy="204.342" rx="0.359" ry="0.347" style="fill:none;stroke:#000;stroke-width:1px;"/></g><g><path d="M342.134,257.533c-4.487,-4.487 -4.605,-11.654 -0.263,-15.996" style="fill:none;stroke:#000;stroke-width:1px;"/><path d="M343.786,249.816c-0.14,-0.14 -0.144,-0.363 -0.008,-0.499c0.135,-0.136 0.359,-0.132 0.499,0.008c0.14,0.14 0.144,0.364 0.008,0.5c-0.135,0.135 -0.359,0.132 -0.499,-0.009Z" style="fill:none;stroke:#000;stroke-width:1px;"/></g><g><path d="M338.876,300c0,-6.345 4.984,-11.497 11.124,-11.497" style="fill:none;stroke:#000;stroke-width:1px;"/><path d="M345.5,295.712c0,-0.198 0.156,-0.359 0.348,-0.359c0.191,0 0.347,0.161 0.347,0.359c0,0.198 -0.156,0.359 -0.347,0.359c-0.192,0 -0.348,-0.161 -0.348,-0.359Z" style="fill:none;stroke:#000;stroke-width:1px;"/></g><path d="M200.52,200.19l99.48,99.81" style="stroke:#f76604;stroke-width:1px;"/><g><text x="246.635px" y="241.941px" style="font-family:'NotoSans-Regular', 'Noto Sans', sans-serif;font-size:12px;fill:#f76604;">b</text><text x="254.015px" y="245.937px" style="font-family:'NotoSans-Regular', 'Noto Sans', sans-serif;font-size:6.996px;fill:#f76604;">1</text></g><g transform="matrix(1,0,0,1,-106.498,0)"><text x="246.635px" y="241.941px" style="font-family:'NotoSans-Regular', 'Noto Sans', sans-serif;font-size:12px;">a</text><text x="253.367px" y="245.937px" style="font-family:'NotoSans-Regular', 'Noto Sans', sans-serif;font-size:6.996px;">1</text></g><g transform="matrix(1,0,0,1,2.81347,-50.4005)"><text x="246.635px" y="241.941px" style="font-family:'NotoSans-Regular', 'Noto Sans', sans-serif;font-size:12px;">a</text><text x="253.367px" y="245.937px" style="font-family:'NotoSans-Regular', 'Noto Sans', sans-serif;font-size:6.996px;">2</text></g><g transform="matrix(1,0,0,1,82.8135,-20.4005)"><text x="246.635px" y="241.941px" style="font-family:'NotoSans-Regular', 'Noto Sans', sans-serif;font-size:12px;">a</text><text x="253.367px" y="245.937px" style="font-family:'NotoSans-Regular', 'Noto Sans', sans-serif;font-size:6.996px;">3</text></g><text x="195.404px" y="314px" style="font-family:'NotoSans-Regular', 'Noto Sans', sans-serif;font-size:12px;fill:#5ea613;">D = 10</text><path d="M100,300l200,0" style="fill:none;stroke:#5ea613;stroke-width:1px;"/><text x="117.8px" y="294.216px" style="font-family:'NotoSans-Italic', 'Noto Sans', sans-serif;font-style:italic;font-size:12px;">α</text></svg>